<svg id="Livello_1" data-name="Livello 1" xmlns="http://www.w3.org/2000/svg" viewBox="0 0 841.89 595.28"><defs><style>.cls-1{fill:#36ff96;}</style></defs><title>logo28</title><path class="cls-1" d="M428.3,446.24c-20,0-40-.08-60,.09-3.29,0-5.07-1-6.62-3.86-3.94-7.33-8.45-14.35-12.29-21.73a8.13,8.13,0,0,1,0-6.69q53.88-94,108.2-187.73a6.89,6.89,0,0,1,4.89-2.94c9-.29,18-.29,27,0a6.88,6.88,0,0,1,4.92,2.87q30.76,52.86,61.13,106a6.24,6.24,0,0,1,0,5.26Q525,390.53,494.26,443.38c-.88,1.5-3.61,2.72-5.49,2.74C468.62,446.32,448.46,446.24,428.3,446.24Z"/><path class="cls-1" d="M331.43,389.86c-5.86-10.15-11.35-19.64-16.82-29.14-4.33-7.49-8.55-15.05-13-22.46-1.47-2.43-1.58-4.26-.1-6.79,20.28-35,40.43-70.06,60.74-105,.83-1.43,2.87-3,4.37-3.05,20-.2,39.92-.13,60.82-.13Z"/><path class="cls-1" d="M589.21,350.35c-9.9,0-16.42-6.63-16.37-16.66,0-9.53,6.83-16.39,16.24-16.45A16.5,16.5,0,0,1,606,333.81C606,343.26,598.83,350.35,589.21,350.35Z"/><path class="cls-1" d="M282.16,334.15c-.05,9.8-6.81,16.3-16.86,16.2a16.11,16.11,0,0,1-16.3-16.5,16.4,16.4,0,0,1,16.85-16.61C275.42,317.28,282.21,324.31,282.16,334.15Z"/></svg>